<?xml version="1.0" encoding="UTF-8"?>
<svg version="1.1" xmlns="http://www.w3.org/2000/svg" width="204" height="192">
<path d="M0 0 C67.32 0 134.64 0 204 0 C204 63.36 204 126.72 204 192 C136.68 192 69.36 192 0 192 C0 128.64 0 65.28 0 0 Z " fill="#FEFDFD" transform="translate(0,0)"/>
<path d="M0 0 C4.00178342 -0.07468157 8.00329167 -0.12885021 12.00561523 -0.16479492 C13.36441117 -0.17979409 14.72315941 -0.20020038 16.08178711 -0.22631836 C30.23625083 -0.49142216 30.23625083 -0.49142216 36 3 C40.36824869 7.59815651 41.39975844 11.52445893 41.359375 17.703125 C40.74789743 21.61126422 38.85774254 23.34638193 36 26 C35.34 26 34.68 26 34 26 C34 26.66 34 27.32 34 28 C34.721875 28.04125 35.44375 28.0825 36.1875 28.125 C39.31672736 29.0985374 41.05266214 30.37951622 43.046875 32.9921875 C45.02764859 37.16480071 44.70637977 41.52848278 44 46 C41.6537162 51.16182436 38.15377678 53.8279808 33 56 C30.21508128 56.33071243 27.85944711 56.47377665 25.09765625 56.390625 C24.01380898 56.38213531 24.01380898 56.38213531 22.9080658 56.37347412 C20.62550414 56.35128257 18.34457802 56.30112549 16.0625 56.25 C14.50458014 56.22991244 12.9466354 56.21166564 11.38867188 56.1953125 C7.5918285 56.1514753 3.79619043 56.08257421 0 56 C0 55.34 0 54.68 0 54 C0.825 53.195625 1.65 52.39125 2.5 51.5625 C5.34916193 49.23877584 5.34916193 49.23877584 5 46 C4.41992188 46.54269531 3.83984375 47.08539063 3.2421875 47.64453125 C2.46101563 48.35996094 1.67984375 49.07539062 0.875 49.8125 C-0.27355469 50.87404297 -0.27355469 50.87404297 -1.4453125 51.95703125 C-7.13470671 56.50680674 -11.79175361 57.55734232 -18.875 57.5 C-19.67639404 57.49500488 -20.47778809 57.49000977 -21.3034668 57.48486328 C-27.33704841 57.30597169 -31.63124562 56.41523049 -36 52 C-36.4846875 51.53078125 -36.969375 51.0615625 -37.46875 50.578125 C-42.64381377 44.98183511 -44.6014317 38.96554808 -44.3515625 31.4921875 C-43.41989103 24.88767199 -39.86222045 20.32197373 -35 16 C-35.33 17.65 -35.66 19.3 -36 21 C-36.66 21 -37.32 21 -38 21 C-37.71884256 30.47500566 -37.17998937 36.0017493 -30.125 42.75 C-24.08445672 47.09919116 -18.27156331 47.82418006 -11 47 C-4.44021765 45.5135907 0.80028526 43.43284785 4.8515625 37.90625 C9.62916339 29.97608254 10.0377714 21.8629238 8.4375 12.8125 C7.24594157 8.54054238 4.47851812 5.71331175 1.4609375 2.56640625 C0 1 0 1 0 0 Z " fill="#F7911D" transform="translate(116,52)"/>
<path d="M0 0 C0.72058594 0.05671875 1.44117188 0.1134375 2.18359375 0.171875 C9.12991371 1.18312435 13.35745035 4.91530276 18 10 C21.83292045 15.22670971 21.53195973 20.75647266 21 27 C19.9356399 31.70092379 17.8722007 35.14048032 15 39 C14.01 39.495 14.01 39.495 13 40 C13.15726562 39.28457031 13.31453125 38.56914063 13.4765625 37.83203125 C14.88976763 30.18595873 14.84504434 24.05577694 10.484375 17.4609375 C8.71850158 15.7229463 7.41676035 15.38213732 5 15 C1.27167145 20.22612529 0.37250726 26.1473688 -0.9296875 32.31445312 C-2.42432823 38.63226014 -2.42432823 38.63226014 -5.4765625 40.58203125 C-8 41 -8 41 -11 41 C-12.87675089 37.13610111 -13.28157509 35.10333907 -12 31 C-10.07454808 27.72995094 -7.81371948 24.68927544 -5.59375 21.61523438 C-2.88715744 17.74024357 -1.35984549 14.85041737 -1 10 C-10.4718436 9.42303491 -17.41576176 10.12886549 -24.8125 16.375 C-31.78244491 24.73893389 -32.92271082 31.25450689 -32 42 C-31.10176293 44.58925019 -30.07844282 46.78326925 -28.6796875 49.1328125 C-28 51 -28 51 -28.69140625 53.1328125 C-30.77891586 56.1114083 -33.60564036 57.10301143 -37 58 C-44.82585887 59.16406144 -50.19166236 56.66583635 -56.5 52.25 C-57.2425 51.63125 -57.2425 51.63125 -58 51 C-57.42647107 47.12867972 -55.51295648 44.91827204 -53 42 C-52.33613281 42.22816406 -51.67226563 42.45632812 -50.98828125 42.69140625 C-49.66376953 43.12259766 -49.66376953 43.12259766 -48.3125 43.5625 C-47.44238281 43.85253906 -46.57226562 44.14257812 -45.67578125 44.44140625 C-41.67916334 45.2757367 -38.80814172 44.26938057 -35 43 C-35 32.77 -35 22.54 -35 12 C-40.61 12 -46.22 12 -52 12 C-52 8.37 -52 4.74 -52 1 C-42.43 1 -32.86 1 -23 1 C-25 5 -27 9 -29 13 C-28.319375 12.113125 -27.63875 11.22625 -26.9375 10.3125 C-19.76807447 1.81763446 -10.95814852 -0.92901452 0 0 Z " fill="#1D516B" transform="translate(102,51)"/>
<path d="M0 0 C0.33 0.66 0.66 1.32 1 2 C0.67 2.99 0.34 3.98 0 5 C-0.66 5 -1.32 5 -2 5 C-1.71884256 14.47500566 -1.17998937 20.0017493 5.875 26.75 C11.89340173 31.08324924 17.7470306 31.85999494 25 31 C30.2988905 29.59204873 35.31643423 28.24278697 39 24 C39.99 24.33 40.98 24.66 42 25 C42.99 23.68 43.98 22.36 45 21 C45.66 21.33 46.32 21.66 47 22 C46.34 22.66 45.68 23.32 45 24 C44.28072705 26.31765729 43.6090107 28.65095874 43 31 C42.01 31 41.02 31 40 31 C38.08833365 32.43889836 38.08833365 32.43889836 36.1875 34.3125 C30.27684821 39.94000679 25.09305687 41.56450529 17.125 41.5 C16.32360596 41.49500488 15.52221191 41.49000977 14.6965332 41.48486328 C8.66295159 41.30597169 4.36875438 40.41523049 0 36 C-0.4846875 35.53078125 -0.969375 35.0615625 -1.46875 34.578125 C-6.64623891 28.97921257 -8.5940212 22.96683093 -8.35546875 15.4921875 C-7.4803294 9.35659514 -4.01161964 4.58470816 0 0 Z " fill="#F69425" transform="translate(80,68)"/>
<path d="M0 0 C2.35951179 2.35951179 2.34409415 3.01925635 2.4375 6.25 C2.374501 9.79512574 1.86323173 11.79607199 -0.375 14.5625 C-3 17 -3 17 -5 17 C-5 17.66 -5 18.32 -5 19 C-4.278125 19.04125 -3.55625 19.0825 -2.8125 19.125 C0.33362446 20.10379428 2.03131901 21.43905305 4.0625 24.03515625 C5.87071724 27.82487821 5.36386882 31.90849732 5 36 C4.67 36 4.34 36 4 36 C4 34.35 4 32.7 4 31 C3.01 30.67 2.02 30.34 1 30 C1 29.34 1 28.68 1 28 C-1.49064888 27.31292445 -3.37886292 27 -6 27 C-7.34187818 26.3507041 -8.67479497 25.68268138 -10 25 C-13.53759193 23.89905606 -17.06607949 23.69537444 -20.75 23.4375 C-21.92046875 23.35371094 -23.0909375 23.26992187 -24.296875 23.18359375 C-25.18890625 23.12300781 -26.0809375 23.06242187 -27 23 C-27 22.67 -27 22.34 -27 22 C-25.9275 21.7525 -24.855 21.505 -23.75 21.25 C-20.00350563 20.00116854 -18.47926118 18.97511342 -16 16 C-19.63 15.67 -23.26 15.34 -27 15 C-27.33 15.99 -27.66 16.98 -28 18 C-28.22127098 15.70954632 -28.4266504 13.41755236 -28.625 11.125 C-28.74101563 9.84882812 -28.85703125 8.57265625 -28.9765625 7.2578125 C-28.98816406 5.64519531 -28.98816406 5.64519531 -29 4 C-28.34 3.34 -27.68 2.68 -27 2 C-27 5.96 -27 9.92 -27 14 C-25.1025 13.855625 -23.205 13.71125 -21.25 13.5625 C-20.18265625 13.48128906 -19.1153125 13.40007812 -18.015625 13.31640625 C-15.56320038 13.05909227 -13.36078709 12.68187782 -11 12 C-10.67 9.69 -10.34 7.38 -10 5 C-9.01 6.485 -9.01 6.485 -8 8 C-3.79373966 6.49776416 -2.26099979 3.71449966 0 0 Z " fill="#F68F18" transform="translate(155,61)"/>
<path d="M0 0 C13.52506793 -0.2732337 13.52506793 -0.2732337 18 2 C20 4 20 4 20.3125 6.9375 C20 10 20 10 18.6875 11.8125 C13.45796229 15.49254505 6.03151772 14.05533502 0 14 C0 9.38 0 4.76 0 0 Z " fill="#FDF4EB" transform="translate(128,84)"/>
<path d="M0 0 C3.5 0.625 3.5 0.625 6.4375 2.625 C9.29117716 6.77580314 9.2099846 8.6551078 8.5 13.625 C7 16.125 7 16.125 4.5 17.625 C-0.4698922 18.3349846 -2.34919686 18.41617716 -6.5 15.5625 C-9.02975133 11.84692774 -9.2878128 10.0367517 -8.5 5.625 C-5.90783917 1.93313458 -4.45850936 0.79616239 0 0 Z " fill="#20536D" transform="translate(71.5,115.375)"/>
<path d="M0 0 C11.71428571 -0.57142857 11.71428571 -0.57142857 17 4 C16.75 7.375 16.75 7.375 16 11 C11.44557709 14.3513678 5.33750902 13.1160328 0 13 C0 8.71 0 4.42 0 0 Z " fill="#FDF4EB" transform="translate(128,62)"/>
<path d="M0 0 C3.4893993 3.25677268 5.76714146 5.73305359 6.265625 10.5859375 C6.21933215 18.8492114 5.03431607 24.23513778 0 31 C-0.66 31.33 -1.32 31.66 -2 32 C-1.84144531 31.28585938 -1.68289062 30.57171875 -1.51953125 29.8359375 C-0.41604958 23.81242104 0.33972603 17.47470714 -3.0625 12.125 C-5 9 -5 9 -5 6.3125 C-3.80271461 3.54377754 -2.26045805 1.96878604 0 0 Z " fill="#1A506A" transform="translate(117,59)"/>
<path d="M0 0 C8.3984375 -0.1953125 8.3984375 -0.1953125 11 0 C13 2 13 2 13.25 4.9375 C13 8 13 8 11 11 C11.99 12.65 12.98 14.3 14 16 C12.35 16 10.7 16 9 16 C8.34 14.35 7.68 12.7 7 11 C5.68 11 4.36 11 3 11 C3 12.65 3 14.3 3 16 C2.01 16 1.02 16 0 16 C0 10.72 0 5.44 0 0 Z " fill="#0A4160" transform="translate(88,117)"/>
<path d="M0 0 C8.13448006 -0.35887412 8.13448006 -0.35887412 11.5625 1.0625 C13.76482517 4.03085131 13.39036882 6.42161914 13 10 C11 12 11 12 7.375 12.125 C6.26125 12.08375 5.1475 12.0425 4 12 C4 13.65 4 15.3 4 17 C2.68 17 1.36 17 0 17 C0 11.39 0 5.78 0 0 Z " fill="#496F83" transform="translate(43,116)"/>
<path d="M0 0 C1.32 0 2.64 0 4 0 C5.00419637 2.4566947 6.00350501 4.91518353 7 7.375 C7.28617188 8.07367188 7.57234375 8.77234375 7.8671875 9.4921875 C10 14.7734375 10 14.7734375 10 17 C8.68 16.67 7.36 16.34 6 16 C6 15.34 6 14.68 6 14 C4.0509375 14.185625 4.0509375 14.185625 2.0625 14.375 C1.33160156 14.44460937 0.60070312 14.51421875 -0.15234375 14.5859375 C-0.76207031 14.72257813 -1.37179688 14.85921875 -2 15 C-2.33 15.66 -2.66 16.32 -3 17 C-4.32 17 -5.64 17 -7 17 C-5.1668733 11.00067626 -2.92678249 5.55079437 0 0 Z " fill="#F69933" transform="translate(133,116)"/>
<path d="M0 0 C3.59391114 1.33488128 6.75490696 2.96022723 10 5 C8.50163895 8.11198065 6.80066242 11.0534615 5 14 C0.59885603 13.49701212 -1.71195019 11.91227269 -5 9 C-4.42647107 5.12867972 -2.51295648 2.91827204 0 0 Z " fill="#1C506A" transform="translate(49,93)"/>
<path d="M0 0 C4.29 0 8.58 0 13 0 C13 1.32 13 2.64 13 4 C11.35 4 9.7 4 8 4 C8 8.29 8 12.58 8 17 C6.68 17 5.36 17 4 17 C4 12.71 4 8.42 4 4 C2.68 4 1.36 4 0 4 C0 2.68 0 1.36 0 0 Z " fill="#F7A34A" transform="translate(108,116)"/>
<path d="M0 0 C3.15771423 3.15771423 2.62506773 6.62579022 3 11 C6.96 11 10.92 11 15 11 C10.98855275 16.28336955 8.74609527 18.72715184 2 20 C1.01 20.33 0.02 20.66 -1 21 C-0.75443359 19.75863281 -0.75443359 19.75863281 -0.50390625 18.4921875 C0.0464547 14.67805811 0.11089055 10.96646499 0.0625 7.125 C0.05798828 6.43664062 0.05347656 5.74828125 0.04882812 5.0390625 C0.03716336 3.35933665 0.01923271 1.67965625 0 0 Z " fill="#F7982E" transform="translate(125,65)"/>
<path d="M0 0 C2.4375 0.8125 2.4375 0.8125 4.4375 3.8125 C4.1133631 7.13490324 3.82973697 8.42026303 1.4375 10.8125 C-1.0625 11.0625 -1.0625 11.0625 -3.5625 10.8125 C-5.5625 8.8125 -5.5625 8.8125 -5.875 5.3125 C-5.771875 4.1575 -5.66875 3.0025 -5.5625 1.8125 C-2.5625 -0.1875 -2.5625 -0.1875 0 0 Z " fill="#F0F2F3" transform="translate(72.5625,119.1875)"/>
<path d="M0 0 C0.33 0 0.66 0 1 0 C1.29599747 9.24169879 0.67844637 15.36958769 -5 23 C-5.66 23.33 -6.32 23.66 -7 24 C-6.71897755 21.04029545 -6.4257082 18.082712 -6.125 15.125 C-6.00705078 13.86236328 -6.00705078 13.86236328 -5.88671875 12.57421875 C-5.76103516 11.36572266 -5.76103516 11.36572266 -5.6328125 10.1328125 C-5.55949707 9.38918457 -5.48618164 8.64555664 -5.41064453 7.87939453 C-5 6 -5 6 -3 4 C-2.01 4 -1.02 4 0 4 C0 2.68 0 1.36 0 0 Z " fill="#6F8B9A" transform="translate(122,67)"/>
<path d="M0 0 C0.66 0 1.32 0 2 0 C3.0893184 3.81261441 3.24240606 5.49498738 1.5 9.125 C-2.39263719 13.60153277 -6.00726911 15.76336082 -11.82397461 16.45410156 C-13.1835955 16.45347932 -14.54333854 16.43154176 -15.90234375 16.390625 C-16.98619102 16.38213531 -16.98619102 16.38213531 -18.0919342 16.37347412 C-20.37449586 16.35128257 -22.65542198 16.30112549 -24.9375 16.25 C-26.49541986 16.22991244 -28.0533646 16.21166564 -29.61132812 16.1953125 C-33.4081715 16.1514753 -37.20380957 16.08257421 -41 16 C-40.67 15.34 -40.34 14.68 -40 14 C-39.0713916 14.01047363 -38.1427832 14.02094727 -37.18603516 14.03173828 C-33.7457431 14.06579204 -30.30562973 14.09088493 -26.86523438 14.10986328 C-25.3752968 14.11993043 -23.88537903 14.13358518 -22.39550781 14.15087891 C-20.25580972 14.17509653 -18.11637247 14.18647564 -15.9765625 14.1953125 C-14.68830566 14.20578613 -13.40004883 14.21625977 -12.07275391 14.22705078 C-7.92273868 13.92039941 -6.60628779 11.64480538 -3.9375 8.6875 C-1.51065265 5.8650352 -0.23169423 3.82295479 0 0 Z " fill="#F69A3A" transform="translate(157,92)"/>
<path d="M0 0 C0.99 0.66 1.98 1.32 3 2 C3.5 4.9375 3.5 4.9375 3 8 C0.5 9.875 0.5 9.875 -2 11 C-2.33 10.34 -2.66 9.68 -3 9 C-5.02463255 8.34786708 -5.02463255 8.34786708 -7 8 C-7 6.02 -7 4.04 -7 2 C-3.6875 0.875 -3.6875 0.875 0 0 Z " fill="#356177" transform="translate(98,117)"/>
<path d="M0 0 C0.99 0 1.98 0 3 0 C3 4.29 3 8.58 3 13 C5.64 13 8.28 13 11 13 C11 13.99 11 14.98 11 16 C7.37 16 3.74 16 0 16 C0 10.72 0 5.44 0 0 Z " fill="#F68D14" transform="translate(150,117)"/>
<path d="M0 0 C0.99 0.33 1.98 0.66 3 1 C2.34 1 1.68 1 1 1 C1 3.64 1 6.28 1 9 C4.465 8.505 4.465 8.505 8 8 C8.66 5.69 9.32 3.38 10 1 C10.66 1.33 11.32 1.66 12 2 C12.125 5.375 12.125 5.375 12 9 C10 11 10 11 6.375 11.125 C5.26125 11.08375 4.1475 11.0425 3 11 C3 12.65 3 14.3 3 16 C2.01 16 1.02 16 0 16 C0 10.72 0 5.44 0 0 Z " fill="#0D4361" transform="translate(44,117)"/>
<path d="M0 0 C0.66 0 1.32 0 2 0 C2.48 7.2 2.48 7.2 0.5 10.5 C-3.18629954 12.71177972 -5.73176192 12.34421275 -10 12 C-10.66 11.67 -11.32 11.34 -12 11 C-12 10.34 -12 9.68 -12 9 C-10.72125 8.87625 -9.4425 8.7525 -8.125 8.625 C-4.65209064 8.30957601 -4.65209064 8.30957601 -2 6 C-1.28591666 4.01643517 -0.61382258 2.01684563 0 0 Z " fill="#23546E" transform="translate(78,121)"/>
<path d="M0 0 C1.32 0 2.64 0 4 0 C4.67119549 1.4562545 5.33681807 2.91507867 6 4.375 C6.556875 5.59316406 6.556875 5.59316406 7.125 6.8359375 C8 9 8 9 8 11 C5.36 11 2.72 11 0 11 C-0.625 8.1875 -0.625 8.1875 -1 5 C-0.34 4.01 0.32 3.02 1 2 C0.67 1.34 0.34 0.68 0 0 Z " fill="#F6A44C" transform="translate(133,116)"/>
<path d="M0 0 C3.59391114 1.33488128 6.75490696 2.96022723 10 5 C9.1875 6.9375 9.1875 6.9375 8 9 C7.01 9.33 6.02 9.66 5 10 C3.17578125 8.78515625 3.17578125 8.78515625 1.3125 7.0625 C0.68988281 6.49660156 0.06726562 5.93070312 -0.57421875 5.34765625 C-1.04472656 4.90292969 -1.51523437 4.45820312 -2 4 C-1.34 2.68 -0.68 1.36 0 0 Z " fill="#134B67" transform="translate(49,93)"/>
<path d="M0 0 C3.11198065 1.49836105 6.0534615 3.19933758 9 5 C9.33 4.01 9.66 3.02 10 2 C10 3.32 10 4.64 10 6 C7.09399739 7.25664978 5.20395416 8 2 8 C0.74335022 5.09399739 0 3.20395416 0 0 Z " fill="#134765" transform="translate(89,84)"/>
<path d="M0 0 C0.66 0.33 1.32 0.66 2 1 C1.34 1.66 0.68 2.32 0 3 C-0.71927295 5.31765729 -1.3909893 7.65095874 -2 10 C-2.99 10 -3.98 10 -5 10 C-6.6875 8 -6.6875 8 -8 6 C-7.34 5.01 -6.68 4.02 -6 3 C-5.01 3.33 -4.02 3.66 -3 4 C-2.01 2.68 -1.02 1.36 0 0 Z " fill="#F6A145" transform="translate(125,89)"/>
<path d="M0 0 C0.66 0.33 1.32 0.66 2 1 C0.25 8.75 0.25 8.75 -2 11 C-2.99 11 -3.98 11 -5 11 C-4.55123384 9.35153231 -4.09069512 7.70626545 -3.625 6.0625 C-3.36976562 5.14597656 -3.11453125 4.22945313 -2.8515625 3.28515625 C-2 1 -2 1 0 0 Z " fill="#F2EFEB" transform="translate(124,77)"/>
<path d="M0 0 C0.33 0 0.66 0 1 0 C1 4.29 1 8.58 1 13 C0.01 13 -0.98 13 -2 13 C-2 9.37 -2 5.74 -2 2 C-1.34 2 -0.68 2 0 2 C0 1.34 0 0.68 0 0 Z " fill="#F58B11" transform="translate(115,120)"/>
<path d="M0 0 C1.32 0.33 2.64 0.66 4 1 C3.62671065 6.35048061 2.0042343 8.50912907 -2 12 C-1.34 8.04 -0.68 4.08 0 0 Z " fill="#174A67" transform="translate(117,79)"/>
<path d="M0 0 C1.1875 3.0625 1.1875 3.0625 2 6 C0.0625 5.625 0.0625 5.625 -2 5 C-2.33 4.34 -2.66 3.68 -3 3 C-5.32156597 2.59270772 -7.6568787 2.25561323 -10 2 C-6.86358686 -1.13641314 -4.14410883 -1.38136961 0 0 Z " fill="#F68C10" transform="translate(141,127)"/>
<path d="M0 0 C0.66 0.33 1.32 0.66 2 1 C1.67 1.66 1.34 2.32 1 3 C0.34 3 -0.32 3 -1 3 C-1.2475 3.5775 -1.495 4.155 -1.75 4.75 C-3.16683317 7.3002997 -4.87627537 9.01785701 -7 11 C-7.99 10.67 -8.98 10.34 -10 10 C-6.92118304 6.12948725 -3.99926986 2.97088618 0 0 Z " fill="#265570" transform="translate(83,54)"/>
<path d="M0 0 C3.01878821 1.66033352 3.97947256 3.33394512 5.5 6.375 C3.85 6.375 2.2 6.375 0.5 6.375 C0.2525 5.570625 0.005 4.76625 -0.25 3.9375 C-1.22238859 1.203919 -1.22238859 1.203919 -3.625 0.5625 C-4.24375 0.500625 -4.8625 0.43875 -5.5 0.375 C-2.5 -0.625 -2.5 -0.625 0 0 Z " fill="#1E4F6B" transform="translate(96.5,126.625)"/>
<path d="M0 0 C1.98 0 3.96 0 6 0 C5.67 1.65 5.34 3.3 5 5 C3.35 5 1.7 5 0 5 C0 3.35 0 1.7 0 0 Z " fill="#E3E7EA" transform="translate(91,120)"/>
<path d="M0 0 C1.65 0 3.3 0 5 0 C5.33 1.65 5.66 3.3 6 5 C4.02 5 2.04 5 0 5 C0 3.35 0 1.7 0 0 Z " fill="#E9EDEF" transform="translate(47,120)"/>
<path d="M0 0 C4.29 0 8.58 0 13 0 C13 1.32 13 2.64 13 4 C11.35 4 9.7 4 8 4 C8 3.01 8 2.02 8 1 C5.36 1 2.72 1 0 1 C0 0.67 0 0.34 0 0 Z " fill="#F6AC61" transform="translate(108,116)"/>
<path d="M0 0 C0.66 0 1.32 0 2 0 C2 2.31 2 4.62 2 7 C0.68 6.67 -0.64 6.34 -2 6 C-1.125 1.125 -1.125 1.125 0 0 Z " fill="#386279" transform="translate(120,72)"/>
<path d="M0 0 C0.33 0 0.66 0 1 0 C1.66 2.64 2.32 5.28 3 8 C1.68 8.33 0.36 8.66 -1 9 C-1.66 7.35 -2.32 5.7 -3 4 C-2.34 3.67 -1.68 3.34 -1 3 C-0.67 2.01 -0.34 1.02 0 0 Z " fill="#38637A" transform="translate(66,122)"/>
<path d="M0 0 C1.35432675 1.31200404 2.68733482 2.64631404 4 4 C4 4.33 4 4.66 4 5 C2.35 5 0.7 5 -1 5 C-0.67 3.35 -0.34 1.7 0 0 Z M5 1 C5.66 2.32 6.32 3.64 7 5 C6.01 4.67 5.02 4.34 4 4 C4.33 3.01 4.66 2.02 5 1 Z " fill="#F9CA9A" transform="translate(134,122)"/>
<path d="M0 0 C2.97 0.33 5.94 0.66 9 1 C9 1.66 9 2.32 9 3 C2.25 3.125 2.25 3.125 0 2 C0 1.34 0 0.68 0 0 Z " fill="#0B3F5F" transform="translate(66,130)"/>
<path d="M0 0 C0.66 0.33 1.32 0.66 2 1 C2 2.98 2 4.96 2 7 C1.01 7.33 0.02 7.66 -1 8 C-1.125 2.25 -1.125 2.25 0 0 Z " fill="#0C4261" transform="translate(99,118)"/>
<path d="M0 0 C2 3 2 3 1.625 5.6875 C1.41875 6.450625 1.2125 7.21375 1 8 C0.01 7.67 -0.98 7.34 -2 7 C-2.125 4.625 -2.125 4.625 -2 2 C-1.34 1.34 -0.68 0.68 0 0 Z " fill="#0E4663" transform="translate(65,119)"/>
<path d="M0 0 C1.5625 1.25 1.5625 1.25 3 3 C2.6875 5.1875 2.6875 5.1875 2 7 C1.34 6.67 0.68 6.34 0 6 C0 4.68 0 3.36 0 2 C-0.66 1.67 -1.32 1.34 -2 1 C-1.34 0.67 -0.68 0.34 0 0 Z " fill="#F69017" transform="translate(136,119)"/>
</svg>
